<?xml version="1.0" encoding="utf-8"?>
<!-- Generator: Adobe Illustrator 21.1.0, SVG Export Plug-In . SVG Version: 6.00 Build 0)  -->
<svg version="1.1" id="Layer_1" xmlns="http://www.w3.org/2000/svg" xmlns:xlink="http://www.w3.org/1999/xlink" x="0px" y="0px"
	 viewBox="0 0 432 288" style="enable-background:new 0 0 432 288;" xml:space="preserve">
<g>
	<polygon points="551.5,-23.5 626.5,19.8 626.5,-66.8 	"/>
	<polygon points="551.5,27.5 626.5,70.8 626.5,-15.8 	"/>
	<polygon points="460.9,28.6 551.6,81 551.6,-23.8 	"/>
	<polygon points="551.5,81.5 626.5,124.8 626.5,38.2 	"/>
</g>
<path id="bubbles_2" d="M412.4,109c5.4-9.4,8.6-20.3,8.6-32c0-35.3-28.7-64-64-64c-10.6,0-20.6,2.6-29.4,7.2
	C317.6,13.7,305.7,10,293,10c-10.6,0-20.6,2.6-29.4,7.2C253.6,10.7,241.7,7,229,7c-13.6,0-26.1,4.2-36.5,11.4
	C182.1,11.2,169.6,7,156,7c-15.6,0-29.9,5.6-41,14.9C103.9,12.6,89.6,7,74,7C38.7,7,10,35.7,10,71c0,15.4,5.4,29.5,14.4,40.5
	c-9,11-14.4,25.1-14.4,40.5c0,11.7,3.1,22.6,8.6,32c-5.4,9.4-8.6,20.3-8.6,32c0,35.3,28.7,64,64,64c17.8,0,33.9-7.3,45.5-19
	c11.6,11.7,27.7,19,45.5,19c18.6,0,35.3-7.9,47-20.6c11.7,12.6,28.4,20.6,47,20.6c19.7,0,37.3-8.9,49-22.8
	c11.7,14,29.3,22.8,49,22.8c35.3,0,64-28.7,64-64c0-14-4.5-27-12.2-37.5C416.5,168,421,155,421,141C421,129.3,417.9,118.4,412.4,109
	z"/>
</svg>
